<svg width="1440" height="744" viewBox="0 0 1440 744" fill="none" xmlns="http://www.w3.org/2000/svg">
<g clip-path="url(#clip0_51_2)">
<path d="M815.961 901.132C1258.54 865.629 1609.61 740.779 1600.11 622.272C1590.6 503.765 1224.11 436.476 781.535 471.98C338.957 507.483 -12.1174 632.333 -2.61091 750.84C6.89561 869.347 373.383 936.635 815.961 901.132Z" fill="#0D4551" stroke="#0D4551" stroke-miterlimit="10"/>
</g>
<g clip-path="url(#clip1_51_2)">
<path d="M812.822 476.238C813.666 474.679 813.716 465.737 809.446 464.04C809.446 464.04 796.239 455.189 778.862 451.291C773.301 450.053 764.861 422.675 764.662 420.749C764.662 420.749 765.109 389.335 754.037 389.198C752.796 389.198 754.335 383.328 754.335 383.328C754.335 383.328 760.839 383.328 762.378 381.631C763.917 379.934 765.705 369.295 764.96 366.222C764.215 363.15 761.931 354.436 760.69 354.574C759.449 354.711 765.854 351.639 761.733 348.979C761.733 348.979 761.584 350.813 757.612 351.501C753.64 352.189 740.632 354.711 739.241 357.555C737.851 360.352 739.837 372.963 739.241 376.357C738.646 379.705 740.135 380.301 736.362 383.649C734.773 385.024 726.333 395.434 725.439 400.754C724.545 406.074 725.141 416.163 725.439 419.832C725.737 423.5 728.765 430.333 729.361 440.01C729.957 449.686 726.928 446.659 727.673 460.05C728.418 473.212 731.298 473.808 731.645 475.596C731.645 475.596 720.027 479.54 722.857 482.062C724.843 483.851 726.035 484.218 723.9 484.31C723.9 484.31 718.885 486.694 720.275 489.629C721.368 491.922 728.616 493.115 730.9 492.702C733.184 492.289 751.257 491.28 751.703 491.739C752.15 492.152 771.116 492.289 778.812 494.949C781.593 495.912 806.815 495.912 810.588 488.208C814.56 480.228 812.226 477.293 812.772 476.284L812.822 476.238ZM764.215 449.732C763.619 450.282 759.052 449.732 759.052 449.732C759.052 449.732 756.47 436.295 758.456 433.452C758.456 433.452 764.811 449.136 764.215 449.732Z" fill="#0D4551" stroke="#0D4551" stroke-miterlimit="10"/>
</g>
<path d="M1037.98 534.953H1036.79C1032.91 528.586 1027.32 522.766 1026 515.509C1024.95 509.712 1023.11 510.103 1019.28 511.892C1014.99 513.892 1010.98 516.274 1007.37 519.477C1004.92 521.649 1002.23 524.633 997.402 523.063C1002.46 518.884 1008.07 515.884 1006.71 508.4C1005.63 508.978 1004.39 509.314 1003.63 510.103C996.097 517.806 986.808 521.712 976.269 522.805C971.198 523.329 966.354 524.907 961.143 525.633C970.62 520.399 981.573 517.954 988.964 508.876C986.581 508.494 984.472 508.033 982.331 507.822C977.894 507.392 973.558 507.252 974.519 513.853C974.73 515.282 973.37 514.946 973.042 514.853C967.698 513.298 963.409 517.438 958.3 517.454C952.651 517.478 947.026 515.118 941.354 517.267C940.643 517.54 939.753 517.634 939.01 517.485C929.534 515.517 920.315 517.673 911.065 519.212C909.838 519.415 909.307 518.704 909.127 517.603C912.885 515.431 917.104 516.22 921.119 515.712C923.26 515.446 925.432 515.259 925.557 512.275C925.791 506.619 931.463 505.408 934.245 500.689C934.081 509.884 934.862 510.462 942.753 509.65C947.198 509.197 951.292 508.486 953.721 504.197C954.3 505.127 954.792 506.72 955.995 506.228C957.214 505.736 956.128 504.705 955.589 504.002C955.761 499.799 958.964 501.916 960.425 502.182C962.44 502.549 962.175 503.51 963.073 500.596C964.253 496.737 965.198 492.893 965.737 488.674C966.433 492.463 971.175 493.643 970.487 498.455C984.159 490.143 992.144 478.277 996.972 464.223C998.542 459.66 997.988 454.411 999.128 449.653C1002.87 434.021 998.246 419.257 994.746 404.398C993.894 400.781 991.003 397.984 988.995 394.836C981.292 382.743 968.019 380.126 956.128 375.126C955.659 374.931 954.511 375.197 954.511 375.236C954.589 380.102 952.136 376.525 951.3 376.009C948.331 374.165 944.346 377.704 941.69 374.048C941.362 373.595 940.393 375.134 940.01 376.032C939.409 377.439 940.307 379.235 938.878 380.415C937.706 379.134 937.018 377.392 935.018 376.829C933.588 378.064 934.276 381.938 930.456 380.517C929.291 380.087 926.58 377.165 926.401 381.665C926.315 383.727 922.659 384.798 925.01 387.774C926.284 389.383 926.315 391.821 924.979 393.891C922.455 386.383 921.323 385.172 917.065 385.719C917.955 387.321 923.104 388.04 918.33 390.774C916.854 391.617 918.096 392.703 918.135 393.742C918.307 398.734 922.885 396.539 925.534 397.851C919.713 402.086 911.268 400.133 906.479 393.797C905.596 392.633 904.838 391.266 903.307 391.985C902.166 392.524 902.064 394.125 902.744 395.117C905.744 399.547 902.885 403.507 902.221 408.601C899.221 404.484 900.986 401.25 901.525 397.945C901.893 395.695 898.025 392.11 894.846 391.367C897.666 393.961 897.533 397.109 895.932 399.679C893.564 403.468 891.783 398.672 889.564 398.695C888.541 398.703 887.971 397.68 887.314 397.383C884.322 396.047 881.095 395.25 878.002 394.133C877.197 393.844 877.283 393.633 872.611 399.078C872.244 399.508 871.634 400.094 871.212 400.039C866.947 399.476 866.705 402.382 865.947 405.429C865.298 408.007 862.806 410.585 860.33 409.39C857.478 408.015 860.986 406.039 861.322 404.234C861.415 403.742 862.064 403.195 860.751 402.515C859.22 403.25 857.072 403.812 855.579 405.117C853.118 407.273 849.853 404.57 847.595 406.851C842.845 399.57 840.204 406.71 836.829 408.484C836.009 408.913 835.47 409.898 834.423 409.124C833.97 405.179 837.782 403.289 838.923 400.109C834.181 398.945 830.376 402.375 825.001 402.297C827.462 399.703 830.595 398.047 827.196 394.906C826.524 394.289 827.024 392.258 827.22 390.907C827.352 390.016 828.251 389.133 827.017 388.407C825.806 387.688 824.876 388.289 823.798 388.954C821.86 390.157 821.946 392.281 821.368 395.953C819.352 390.961 820.579 383.259 812.43 390.102C815.329 382.899 812.743 377.892 809.641 372.923C814.477 372.642 813.149 377.985 816.454 379.813C816.454 375.884 817.641 371.869 816.165 369.541C814.087 366.259 814.134 358.83 806.258 362.205C803.258 363.494 800.165 359.041 800.969 355.698C801.446 353.706 804.047 351.284 800.618 349.596C798.235 348.425 796.961 345.565 794.875 344.831C789.563 342.98 786.938 340.847 792.274 334.73C786.266 340.019 786.344 335.652 786.25 332.394C784.071 332.394 783.68 334.035 782.711 334.902C780.461 336.902 778.844 336.144 778.617 333.597C778.008 326.84 773.61 324.098 767.852 322.528C767.5 322.09 767.141 321.653 766.789 321.215C767.438 318.309 764.438 316.981 763.922 314.575C763.609 312.989 764.93 311.091 763 309.817V306.263C765.859 304.865 767.32 302.279 768.524 299.443C770.859 301.169 769.227 307.216 774.188 305.005C778.055 303.286 777.36 299.052 777.305 294.678C773.07 298.521 770.242 294.92 767.008 293.834C768.07 290.725 765.227 286.834 768.445 284.327C770.477 282.741 773.25 282.155 775.57 280.897C777.977 279.592 780.68 278.413 782.453 276.452C784.532 274.155 780.61 273.624 780.235 271.851C780.039 270.921 779.758 269.999 779.524 269.109C781.297 267.687 782.805 270.296 784.93 268.843C779.781 266.32 783.805 260.414 779.961 257.016C778.719 255.914 777.938 251.946 780.672 250.953C783.211 250.039 783.789 253.235 784.649 255.117C785.196 256.305 785.555 257.578 786.102 259.117C789.055 256.18 791.875 256.016 794.813 258.766C797.157 260.961 798.626 256.656 800.985 257.711C801.204 257.805 802.141 256.023 801.383 255.875C797.704 255.164 798.251 250.594 795.368 249.321C794.141 250.25 795.211 251.235 794.993 252.102C794 255.938 791.243 251.125 789.711 253.156C789.368 253.617 787.883 252.438 788.453 252.149C793.344 249.672 786.36 248.844 787.821 246.962C789.438 245.665 792.172 248.165 793.188 245.54C793.454 244.86 792.469 243.141 791.633 242.681C788.391 240.915 787.086 242.72 786.743 245.798C784.25 244.415 784.586 240.446 781.258 239.829C781.696 239.532 782.125 239.235 782.563 238.939C783.813 240.032 785.266 239.993 785.68 238.454C786.078 236.978 785.196 235.876 783.375 236.931C783.664 235.931 783.946 234.931 784.235 233.931C786.946 231.884 789.539 229.744 791.094 226.392C785.422 225.369 785.352 230.322 783.125 232.783C780.219 233.197 779.297 231.775 779.594 229.088C779.703 228.142 779.555 227.166 779.594 226.205C779.641 224.83 775.945 224.619 778.305 222.721C780.539 220.932 781.203 223.244 782.141 224.689C783.032 226.064 784.117 225.603 785.102 224.752C786.172 223.83 788.5 223.713 787.618 221.494C787.172 220.377 786.266 219.627 787.844 218.666C791.586 216.385 787.368 214.12 786.922 214.01C784.133 213.346 782.078 208.448 779.031 211.385C776.383 213.932 773.656 216.51 771.219 219.307C770.289 220.369 770.75 222.721 768.469 222.447C767.883 222.377 766.922 221.486 766.938 220.994C766.984 219.346 768.07 218.213 769.352 217.182C774.289 213.229 775.695 206.933 772.539 201.87C770.149 198.027 774.961 195.957 774.422 192.668C776.43 193.644 779.688 190.598 780.453 196.003C781.657 192.699 782.196 190.605 783.164 188.746C784.047 187.051 785.219 185.152 787.641 185.754C788.727 186.02 790.539 187.238 790.039 187.902C788.461 189.996 788.899 194.449 787.782 194.371C783.282 194.058 784.375 197.785 784.75 198.933C785.641 201.722 788.618 201.136 790.86 200.738C792.899 200.378 796.079 199.206 794.704 196.902C792.594 193.371 794.79 191.418 795.938 188.871C797.422 185.59 798.579 182.817 796.829 178.645C795.165 174.677 792.211 176.637 790.219 175.247C789.118 174.481 787.266 174.161 788.227 172.419C789.125 170.778 790.11 172.559 791.039 172.888C798.868 175.598 801.665 173.645 801.391 165.802C799.805 164.747 799.727 168.208 797.993 166.833C796.399 163.31 804.297 160.599 798.852 156.756C799.274 156.365 799.688 155.959 800.126 155.592C802.219 153.865 802.837 152.482 800.813 149.779C798.961 147.303 798.961 143.92 802.907 141.483C803.149 145.694 805.258 147.897 808.782 149.014C809.43 149.217 809.852 151.014 810.501 149.225C811.235 147.202 814.532 148.334 814.509 145.694C814.493 143.694 814.54 143.444 815.274 143.694C817.899 144.577 820.431 144.92 822.868 143.225C823.329 143.67 823.813 143.858 824.259 143.241C824.282 143.21 823.798 142.803 823.548 142.577C825.188 139.905 825.259 137.101 824.321 134.179C823.97 133.077 823.204 132.593 822.149 132.624C821.11 132.648 821.134 133.546 820.946 134.304C820.673 135.421 820.47 136.624 819.899 137.593C818.407 140.124 816.845 143.764 814.688 137.913C814.391 137.108 813.196 136.679 812.571 135.937C811.173 134.28 809.337 132.249 810.688 130.226C812.227 127.921 813.352 132.398 815.876 130.999C814.063 128.859 812.821 125.078 815.571 124.656C821.649 123.726 816.141 121.523 816.438 119.836C818.11 120.07 819.626 120.461 821.141 120.445C822.423 120.437 823.86 119.305 822.688 118.242C818.54 114.469 823.626 111.977 823.759 108.836C823.813 107.524 826.774 106.743 825.274 105.009C823.712 103.204 822.72 106.024 821.259 106.118C820.095 106.188 818.555 106.868 817.946 105.751C816.938 103.891 818.97 103.657 820.016 102.97C822.313 101.462 826.798 99.2042 826.579 98.5714C824.774 93.353 831.868 91.1578 830.306 86.2518C829.954 85.1347 831.173 84.1504 832.665 84.4707C833.524 84.6582 834.204 85.1972 833.696 86.0643C831.212 90.2907 834.689 90.3453 837.056 90.525C839.376 90.7047 841.72 92.3999 841.736 93.5092C841.837 99.3214 846.447 97.0715 849.29 98.3527C847.47 95.931 848.822 91.0406 848.087 91.2047C842.196 92.5718 844.587 85.7987 841.259 84.7285C840.017 84.3301 840.634 81.2209 841.626 81.5021C847.376 83.1036 846.501 76.1274 850.603 74.7134C852.829 73.9478 856.056 72.5182 858.478 70.3543C858.908 72.5729 858.142 73.9244 856.939 74.5103C852.611 76.6196 850.954 80.3928 849.72 84.6972C849.204 86.5096 847.431 88.0252 849.415 89.9313C851.361 91.7906 853.236 90.361 854.806 89.5173C857.345 88.158 854.947 86.2753 854.658 84.7675C854.306 82.9083 854.775 79.8616 855.501 80.385C858.619 82.627 862.298 79.3772 864.212 81.0646C867.072 83.5723 866.369 82.1817 867.548 79.9787C871.369 72.8073 876.713 71.6901 882.369 76.2446C883.158 73.651 886.369 69.0731 883.197 68.8387C878.845 68.5184 876.056 66.8779 873.025 64.6124C872.767 64.4171 872.517 64.2062 871.837 63.6515C874.533 61.4485 877.088 58.9799 880.666 60.4173C885.416 62.3235 889.846 65.4327 894.994 61.6126C896.103 64.1515 894.338 65.3702 893.775 66.9248C892.15 71.4245 896.143 73.44 898.104 76.1118C899.924 78.596 901.525 75.4243 902.729 74.5259C905.369 72.5573 907.549 73.2135 909.83 75.2446C910.533 72.401 906.432 71.6823 908.166 69.0965L908.041 69.0106C911.471 67.1357 914.424 69.5106 917.573 70.0887C918.862 70.659 920.065 72.2682 921.58 70.5886C922.088 70.0262 922.416 68.8309 921.666 68.6044C920.721 68.3153 919.557 68.7684 918.487 68.9012C917.338 65.128 920.401 66.3311 921.901 66.2608C924.471 66.1358 927.034 67.7997 929.823 66.7061C929.206 64.7843 926.518 65.4405 926.666 63.3C926.823 61.1126 934.37 54.4489 936.424 55.3629C941.034 57.4253 941.385 53.7927 942.987 51.2069C939.846 52.3553 937.487 50.8632 935.049 49.3008C938.088 50.2226 940.62 45.0432 944.096 48.8633C944.448 49.2461 947.995 48.2852 948.425 46.59C948.885 44.7542 947.198 44.1214 945.276 44.4495C943.831 44.6995 942.589 44.0823 941.768 42.3949C944.909 42.7855 945.956 39.1607 949.003 39.0514C950.659 38.9967 950.19 37.5827 949.675 36.3718C948.315 33.1845 948.37 33.1611 952.55 31.4034C949.096 37.4186 955.339 38.9029 957.456 41.9809C958.815 43.9573 961.698 40.8013 963.276 38.7467C963.729 38.153 964.456 38.2233 965.253 38.7467C972.05 43.2464 974.066 43.0589 979.683 37.528C977.987 36.8952 975.761 35.2625 974.769 35.825C968.573 39.3013 967.815 34.9344 966.761 30.7549C969.839 30.2862 973.175 26.4271 975.683 32.4189C976.355 34.0204 979.175 30.3878 980.8 29.13C983.073 27.3645 981.136 27.1536 979.386 26.7396C977.487 26.2865 978.792 24.8803 979.316 24.0288C980.198 22.607 980.659 20.4821 983.011 20.8649C984.198 21.0602 985.238 21.6852 984.956 23.2476C984.011 28.5051 984.23 33.7626 984.917 39.0201C984.917 39.481 984.917 39.9419 984.917 40.395C985.261 40.2075 985.605 40.0201 985.949 39.8326C987.347 39.6138 988.8 39.2779 989.284 37.778C992.339 28.216 1000.28 21.9664 1005.48 12.7247C1006.44 17.3729 1003.46 20.4743 1003.93 24.5053C1006.85 23.1304 1009.44 22.1539 1011.76 20.7399C1013.91 19.4353 1014.83 15.7011 1018.69 19.0994C1020.01 20.2634 1023.97 17.6463 1025.68 21.5836C1026.22 22.8413 1028.56 25.6927 1030.52 22.6929C1032.87 19.0837 1030.91 16.2089 1026.61 16.3183C1025.72 16.3417 1024.82 16.0448 1023.9 15.8886C1024.25 13.5528 1027.43 15.4121 1027.33 13.3497C1027.15 9.17023 1029.66 10.9358 1031.54 11.2248C1036.44 11.9669 1038.48 14.1934 1036.02 19.2087C1035.46 20.3571 1034.48 22.6617 1036.89 23.0288C1038.31 23.2397 1040.01 25.0443 1041.76 22.1304C1043.84 18.6619 1045.63 19.1619 1048.79 22.9585C1047.67 23.0366 1046.73 23.0913 1045.79 23.1616C1043.52 23.3413 1043.08 25.0131 1043.88 26.5052C1045.18 28.9269 1045.62 26.2161 1046.54 25.8568C1048.82 24.974 1050.39 25.9818 1050.65 28.3566C1050.81 29.7472 1050.44 31.5752 1052.47 31.0831C1054.06 30.6925 1054.89 29.1222 1053.53 27.4114C1050.95 24.185 1053.34 23.1773 1055.76 21.7711C1060.11 19.2556 1058.07 24.5053 1059.97 24.9975C1063.11 22.5445 1060.22 20.0212 1060 17.5369C1060.2 17.3416 1060.41 17.1542 1060.62 16.9667C1062.79 17.5213 1064.87 18.0525 1062.9 14.584C1061.94 12.8966 1062.6 11.1311 1063.13 9.51396C1063.42 8.62338 1064.61 8.79525 1065 9.45146C1066.82 12.506 1067.23 11.2326 1067.69 8.75619C1068.15 6.27196 1074.18 4.70954 1068.9 1.2488C1068.81 1.19412 1069.01 0.334789 1069.24 0.241044C1071.84 -0.79796 1073.66 1.86595 1076.07 1.74096C1076.99 1.69409 1078.43 1.13943 1078.1 2.58466C1076.21 10.7795 1082.39 5.17045 1084.5 6.4282C1083.02 8.14685 1082.43 10.2327 1084.97 11.0295C1088.5 12.1466 1090.61 15.9902 1094.68 15.7402C1094.89 15.7245 1095.12 14.3887 1095.15 13.6622C1095.29 10.3108 1090.19 7.00629 1084.32 6.60006C1085.07 3.41274 1087.07 4.67048 1089 5.19389C1091.96 5.99853 1094.97 7.17034 1098.37 4.27988C1098.08 8.33434 1099.34 10.8029 1102.93 12.9044C1097.96 0.858197 1107.83 11.1467 1108.37 7.24846C1109.54 9.38116 1106.25 9.55302 1107.67 10.9983C1110.1 13.4669 1111.25 8.96712 1115.39 9.45146C1106.01 13.8028 1116.52 15.9745 1114.46 19.4431C1117.33 20.6774 1118.91 17.4901 1121.77 17.3495C1121.22 21.3883 1123.27 22.9273 1126.93 22.0211C1130.05 21.2477 1132.43 22.2789 1132.72 25.2006C1133.18 30.0284 1136.69 31.4971 1140.11 33.1533C1142.4 34.2626 1144.44 35.1688 1142.76 38.4498C1137.86 35.1141 1133.93 37.4108 1130.09 40.52C1126.07 43.7698 1130.45 46.4259 1130.61 49.3711C1130.7 51.2382 1131.7 52.3709 1133.39 52.6834C1135.12 53.0037 1135.57 51.3475 1136.31 50.246C1137.26 48.8321 1147.97 39.3248 1149.22 38.3717C1150.28 37.5514 1151.2 35.9656 1152.53 37.3561C1153.6 38.4811 1152.69 40.0122 1151.9 41.1294C1150.43 43.223 1147.61 45.176 1147.54 47.2618C1147.43 50.5976 1147.57 52.6053 1143.4 52.3084C1141.82 52.1991 1142.36 54.1052 1142.23 55.1676C1142.15 55.816 1141.86 56.5972 1142.81 57.0816C1146.3 58.8549 1150.78 56.6363 1151.72 52.5506C1152.1 50.9335 1152.12 47.754 1153.78 48.5352C1157.02 50.0742 1158.69 46.9884 1161.47 46.7853C1161.29 47.7618 1161.28 48.3165 1161.09 48.8008C1159.57 52.8553 1157.98 56.8316 1154.4 59.6908C1153.01 60.7923 1152.37 62.6516 1153.02 64.5265C1153.15 64.9249 1154.22 65.4327 1154.3 65.3389C1155.23 64.4171 1155.87 61.886 1157.35 64.7218C1158.05 66.0498 1156.53 66.6904 1155.59 67.3466C1154.83 67.8779 1153.63 68.3153 1154.47 69.5106C1155.19 70.5261 1156.17 69.7684 1157.12 69.6278C1158.4 69.4403 1160.33 66.7373 1160.73 69.0419C1161.4 72.7526 1165.58 72.0183 1166.01 75.1275C1168.91 73.1041 1168.19 69.7449 1170.12 67.4794C1171.2 70.0262 1172.13 72.4089 1171.62 74.9712C1170.66 79.7756 1172.76 78.9397 1175.66 77.4086C1178.12 76.1118 1180.94 74.1353 1180.37 79.8147C1180.17 81.7521 1181.74 84.0879 1184.28 84.6972C1185.94 82.7442 1184.01 77.3461 1188.4 79.4085C1190.12 80.2131 1191.52 84.3847 1193.19 86.9549C1193.63 87.6346 1190.95 88.9001 1193.49 89.3142C1195.23 89.6032 1196.48 88.1502 1196.23 86.9393C1194.7 79.5725 1200.07 79.6272 1205.43 78.096C1202.64 82.877 1205.22 83.9941 1208.5 84.6347C1209.71 84.8691 1211.55 84.3379 1210.84 86.7049C1209.73 86.9862 1208.59 87.2205 1207.49 87.5564C1206.26 87.9314 1208.64 90.8844 1206 89.9547C1204.87 89.5563 1202.01 89.3376 1203.4 86.5487C1203.96 85.4472 1203.88 84.666 1202.45 84.6113C1201.22 84.5644 1200.62 85.3222 1200.84 86.4628C1201.4 89.3142 1201.98 92.1734 1202.74 94.9779C1203.22 96.7278 1205.81 96.8215 1206.03 96.2591C1208.45 89.9938 1211.58 95.6497 1214.41 96.1653C1214.85 92.3843 1209.91 91.5797 1210.96 88.1111C1213.37 87.2674 1213.84 90.111 1215.75 90.7516C1216.15 89.7438 1216.46 88.822 1216.88 87.9627C1217.48 86.7127 1218.39 85.0566 1219.83 85.8847C1221.42 86.7909 1220.39 88.2517 1219.33 89.2438C1216.12 92.2124 1220.32 94.0092 1220.44 96.4466C1216.72 97.4543 1212.98 98.4543 1209.26 99.462C1208.13 99.7667 1205.87 97.6809 1206.08 100.767C1206.26 103.415 1208.24 103.641 1210.4 103.376C1214.41 102.884 1217.62 100.821 1220.62 98.3215C1224.37 97.6574 1224.44 103.196 1228.44 102.931C1229.47 102.86 1226.6 106.079 1227.59 108.094C1231.3 109.188 1235 107.758 1238.65 107.633C1242.04 107.516 1242.12 107.516 1240.67 110.11C1239.66 111.922 1237.53 113.907 1242.04 113.461C1243.22 113.344 1242.99 114.524 1242.93 115.219C1242.41 121.226 1244.6 124.32 1250.48 126.164C1252.13 126.687 1253.64 127.687 1255.2 128.484C1256.05 128.913 1256.26 129.64 1255.82 130.413C1255.33 131.288 1254.05 132.312 1253.55 131.546C1251.41 128.171 1249.21 130.265 1246.5 130.359C1241.51 130.531 1244.42 133.484 1244.27 134.788C1244.12 136.069 1242.7 139.694 1247.06 138.39C1249.16 137.757 1250.17 138.585 1250.62 141.389C1251.12 144.506 1249.01 148.865 1253.77 150.858C1254.64 151.217 1253.84 153.053 1252.95 153.92C1252.31 154.553 1250.93 154.982 1251.87 156.084C1252.39 156.701 1253.6 156.951 1254.52 156.99C1255.94 157.045 1255.73 155.912 1255.76 154.912C1255.82 152.553 1256.02 150.201 1256.12 147.842C1256.16 146.498 1256.8 145.553 1258.03 145.209C1259.27 144.866 1260.48 145.225 1260.97 146.522C1263.16 152.279 1265.11 148.155 1267.02 146.366C1268.3 145.163 1269.34 143.694 1270.62 142.475C1271.48 141.647 1272.66 141.092 1273.77 142.069C1274.98 143.131 1273.93 144.209 1273.55 145.248C1272.94 146.905 1270 147.936 1270.8 149.459C1273.31 154.178 1269.33 154.654 1266.92 155.607C1265.5 156.162 1263.75 157.334 1264.32 157.857C1268.02 161.326 1263.85 160.349 1262.7 160.912C1261.72 161.396 1260.34 161.263 1260.03 163.287C1264.48 163.341 1268.92 162.333 1273.17 163.935C1275.06 164.646 1277.41 165.45 1276.26 167.802C1275.12 170.122 1273.24 168.458 1271.87 167.372C1268.98 165.076 1265.85 166.318 1263.59 167.81C1261.69 169.075 1260.74 173.059 1261.87 174.497C1263.91 177.075 1263.98 180.497 1266.66 183.699C1267.11 179.403 1271.08 177.52 1270.37 173.427C1270.16 172.145 1271.75 171.669 1272.89 171.395C1274.15 171.091 1275.27 171.497 1275.91 172.653C1276.75 174.161 1275.3 174.458 1274.55 175.309C1272.66 177.481 1273.38 180.536 1272.87 183.09C1272.21 186.434 1276.89 186.098 1278.82 187.996C1279.7 188.863 1281.1 187.715 1281.25 185.832C1281.48 182.949 1284.34 180.286 1286.08 181.207C1288.95 182.731 1286.13 185.645 1285.4 187.887C1284.69 190.066 1282.66 190.965 1280.67 190.629C1277.13 190.035 1275.56 191.629 1274.84 194.746C1274.51 196.191 1273.76 197.253 1272.13 197.371C1272.15 190.285 1268.27 186.871 1262.17 189.238C1266.73 190.777 1267.49 196.386 1272.3 197.222C1273.48 197.496 1271.25 200.48 1273.89 199.347C1275.02 198.863 1275.98 198.027 1276.91 199.175C1277.96 200.464 1276.06 201.183 1275.98 202.206C1275.77 205.026 1271.3 205.292 1272.25 208.745C1273.33 212.659 1273.08 216.448 1271.77 220.369C1271.03 222.557 1272.94 224.603 1274.8 225.596C1277.03 226.783 1277.66 224.471 1278.6 223.033C1281.56 218.526 1289.28 215.862 1295.65 217.174C1293.18 221.705 1286.3 223.416 1286.9 230.22C1285.73 230.361 1284.05 230.572 1281.93 230.83C1285.09 233.259 1287.68 233.009 1290.43 231.111C1292.19 229.9 1294.28 228.306 1296.4 229.556C1298.75 230.947 1296.96 233.517 1297.16 235.54C1297.55 239.759 1294.38 243.977 1298.77 249.438C1293.35 247.391 1290.92 247.86 1291.79 252.766C1292.09 254.43 1290.29 254.883 1288.79 254.485C1287.96 254.266 1286.3 253.516 1287.5 252.719C1291.49 250.094 1289.24 245.251 1291.84 241.954C1293.32 240.063 1292.1 236.439 1288.86 235.986C1284.81 235.415 1281.27 235.009 1279.73 230.298C1279.09 228.361 1276.53 229.009 1274.93 229.384C1272.92 229.853 1272.38 232.15 1272.54 233.65C1272.78 236.064 1275.02 234.353 1276.33 234.626C1278.56 235.095 1280.66 235.868 1281.71 237.868C1282.81 239.946 1279.02 238.86 1279.41 240.837C1280.94 241.134 1282.46 241.431 1284 241.727C1284.34 243.79 1279.09 245.712 1283.37 247.055C1287.01 248.196 1284.57 249.672 1284.02 250.329C1282.98 251.594 1280.6 251.414 1280.13 253.555C1280.21 254.063 1280.29 254.563 1280.37 255.07C1280.65 254.867 1280.93 254.656 1281.21 254.453C1281.8 254.391 1282.74 254.07 1282.92 254.313C1285.16 257.336 1287.59 258.922 1291.72 257.617C1293.8 256.961 1294.41 258.156 1293.3 260.758C1292.35 262.961 1293.45 266.015 1293.6 268.695C1293.8 271.976 1294.59 273.796 1298.66 272.413C1302.39 271.148 1306.03 271.937 1309 277.358C1305.18 274.679 1302.43 275.866 1300.01 276.944C1294.88 279.233 1291.7 274.96 1287.94 273.46C1284.34 272.023 1288.75 268.577 1288.48 265.617C1283.34 266.578 1283.91 270.413 1284.61 272.991C1285.45 276.046 1287.66 281.397 1289.7 280.866C1296.06 279.202 1292.26 284.663 1294.13 285.912C1288.98 284.045 1284.1 281.835 1279.37 279.311C1278.11 278.632 1277.31 277.452 1276.09 279.132C1275.5 279.928 1274.79 280.694 1275.92 281.592C1281.84 286.264 1276.84 288.756 1273.88 291.592C1272.94 292.49 1270.28 292.951 1270.9 293.842C1273.31 297.365 1271.55 302.872 1276.53 305.208C1277.73 303.857 1275.77 299.912 1279 300.74C1281.48 301.372 1281.49 304.607 1280.76 306.927C1280.2 308.685 1279.16 311.177 1276.68 308.856C1275.43 307.685 1274.6 307.107 1273.32 308.403C1272.95 308.778 1272.63 309.442 1272.69 309.935C1272.9 311.794 1274.59 311.544 1275.82 311.989C1277.9 312.747 1280.42 311.067 1282.69 313.145C1280.82 315.184 1278.12 315.981 1277.27 318.582C1276.94 319.551 1275.55 320.348 1274.89 319.817C1269.37 315.442 1267.28 321.949 1264.01 323.606C1261.61 324.824 1260.59 325.121 1259.65 322.949C1257.79 318.661 1255.79 320.559 1252.85 322.66C1254.83 323.379 1257.82 321.942 1256.99 325.332C1256.58 327.059 1257.73 327.73 1259.35 327.934C1261.32 328.168 1262.19 329.113 1261.1 331.152C1260.63 332.035 1260.66 333.816 1261.42 333.707C1267.16 332.863 1265.02 337.894 1266.52 340.284C1268.83 340.534 1271.1 337.816 1274.61 340.886C1267.29 341.027 1265.94 345.143 1266.55 350.674C1266.62 351.354 1265.43 352.854 1264.91 352.815C1260.34 352.471 1259.09 356.369 1256.69 358.861C1254.36 361.275 1250.66 362.26 1250.18 366.58C1250.01 368.095 1247.27 370.58 1245.48 367.939C1242.19 363.08 1241.89 366.244 1240.73 369.127C1239.76 371.509 1237.33 373.798 1235.04 372.509C1229.98 369.666 1226.15 373.884 1224.2 375.775C1218.33 381.485 1218.89 382.071 1211.83 378.009C1210.86 377.446 1209.98 377.446 1209.28 378.399C1207.5 380.821 1200.91 387.672 1199.55 387.899C1192.28 389.133 1195.94 392.141 1198.59 394.5C1204.32 399.578 1204.41 399.476 1198.92 404.515C1198.09 399.211 1193.12 395.555 1193.11 389.891C1193.11 389.11 1192.1 389.008 1191.26 388.899C1185.14 388.118 1178.65 392.852 1178.12 398.851C1178.01 399.976 1178.87 401.047 1177.03 401.312C1175.72 401.5 1174.28 401.156 1173.97 400.078C1172.83 396.094 1170.33 389.571 1171.25 388.446C1175.08 383.774 1170.79 382.368 1169.26 379.806C1172.33 377.321 1168.94 376.22 1168.19 374.486C1166.89 371.486 1165.12 372.822 1163.62 373.993C1161.37 375.743 1162.48 377.329 1164.22 378.72C1165.23 379.532 1166.99 379.274 1167.43 380.931C1166.35 382.579 1165.44 383.751 1163.35 381.743C1161.42 379.892 1159.08 378.337 1156.69 377.142C1155.19 376.392 1153.34 373.189 1151.54 376.634C1150.36 378.876 1150.01 381.298 1153.62 381.977C1154.73 382.188 1156.16 382.696 1155.52 384.165C1154.93 385.547 1153.64 386.055 1152.08 385.11C1150.38 384.087 1148.6 383.36 1146.49 383.626C1141.03 384.305 1139.85 391.508 1134.09 391.68C1133.73 398.805 1126.79 397.187 1123.04 399.726C1121.42 400.82 1118.82 401.343 1119.51 396.719C1120.2 391.977 1115.36 388.899 1112.08 386.079C1110.08 384.368 1110.37 389.079 1107.88 389.172C1107.37 385.172 1106.88 380.454 1100.65 386.219C1103.92 377.517 1103.85 376.853 1095.96 375.939C1093.18 375.618 1089.54 375.275 1087.14 376.251C1078.79 379.649 1069.16 382.321 1063.87 389.711C1051.32 407.226 1039.82 425.584 1048.18 448.895C1048.5 449.809 1048.5 450.848 1048.77 451.786C1053.15 466.715 1053.1 483.55 1068.35 493.682C1071.72 495.924 1074.13 498.018 1078.13 496.307C1080.73 497.471 1083.32 498.643 1085.96 499.822C1086.85 496.963 1083.07 496.026 1084.18 493.502C1084.97 493.87 1085.77 494.229 1086.57 494.596C1087.45 495.838 1088.73 495.408 1089.9 495.408C1088.71 497.057 1088.82 498.721 1089.32 500.674C1091.88 499.564 1091.13 497.283 1092.16 495.948C1093.41 494.33 1091.07 489.963 1094.47 490.862C1097.59 491.69 1094.44 495.151 1094.51 497.455C1094.53 498.057 1093.65 498.666 1093.22 499.307C1092.06 501.025 1092.18 501.557 1094.05 503.478C1098.68 508.228 1105.65 510.126 1109.01 516.298C1109.87 517.876 1113.04 518.884 1113.59 517.915C1115.62 514.345 1119.33 516.118 1123.83 513.165C1119.2 518.259 1120.59 519.001 1124.36 518.126C1126.42 517.649 1129.29 517.946 1130.41 518.493C1133.79 520.141 1138.46 517.587 1141.36 521.774C1138.36 522.415 1135.65 522.493 1133.42 523.563C1123.3 528.453 1114.24 522.618 1105.16 520.352C1096.57 518.212 1088.7 513.251 1080.42 509.751C1078.29 508.853 1075.84 508.916 1073.66 509.65C1072.65 511.275 1076.22 511.845 1074.43 513.532C1072 513.868 1068.63 510.626 1067.59 515.267C1066.64 519.485 1070 518.884 1072.52 519.93C1074.02 520.555 1076.9 519.868 1077.8 522.86C1071.34 522.86 1065.29 522.915 1059.23 522.805C1058.13 522.782 1055.64 522.048 1057.01 520.923C1058.73 519.509 1055.52 515.759 1060 515.931C1061.34 515.985 1061.39 519.618 1062.78 516.845C1063.54 515.314 1064.07 513.79 1062.44 511.759C1058.86 507.291 1053.77 507.345 1049.04 506.009C1046.77 505.369 1044.86 504.76 1043.29 507.017C1041.63 509.392 1043.14 510.962 1044.63 512.673C1049.39 518.149 1054.24 523.532 1060.58 529.055C1054.87 528.961 1051.44 526.852 1048.76 523.672C1045.68 520.009 1041.87 517.188 1038.29 514.118C1035.86 512.025 1034.2 512.931 1034.37 516.149C1034.47 518.087 1035.04 520.009 1035.51 521.907C1036.58 526.227 1039.28 530.235 1037.93 535L1037.98 534.953ZM934.182 377.665C936.846 379.727 937.393 376.337 937.581 375.673C938.088 373.845 936.674 372.978 934.776 373.236C934.565 371.908 934.479 370.548 934.112 369.259C933.823 368.236 932.135 367.564 932.081 368.369C931.706 373.423 925.307 372.056 923.955 376.368C927.526 377.501 931.151 380.454 932.94 374.259C933.096 373.72 934.198 373.462 934.854 373.072L934.729 376.025C933.76 376.306 933.463 376.814 934.182 377.665ZM1009.75 26.3411C1009.37 26.0208 1008.82 25.349 1008.64 25.4349C1007.54 25.9427 1008.38 26.5677 1008.67 27.1458C1012.33 32.3955 1017.69 32.9423 1023.39 32.2471C1024.04 32.1689 1024.76 30.8956 1025.04 30.0519C1025.37 28.9816 1024.21 29.1222 1023.57 28.7941C1020.14 26.9974 1016.79 25.1225 1012.82 27.5364C1011.56 28.302 1010.81 26.6927 1009.75 26.3411ZM997.761 237.353C997.527 238.673 997.175 239.978 997.097 241.306C997.027 242.485 997.433 243.688 998.527 244.266C999.949 245.016 1000.6 243.759 1001.18 242.813C1001.82 241.751 1003.04 240.767 1001.72 239.259C1000.59 237.962 999.136 237.704 997.605 237.501C995.23 233.806 1000.1 229.306 996.41 225.424C992.503 235.236 991.566 222.385 988.636 225.103C987.902 232.501 991.66 237.681 997.753 237.345L997.761 237.353ZM807.485 345.698C807.04 345.675 806.602 345.651 806.157 345.62C806.376 345.94 806.594 346.253 806.813 346.573C806.243 349.268 809.094 350.76 809.243 352.94C809.43 355.635 813.259 353.307 812.946 356.362C812.337 362.174 817.063 361.682 820.634 362.877C820.352 359.955 817.095 360.19 816.462 358.151C817.071 356.182 819.626 357.916 820.11 356.026C819.735 354.463 816.923 354.62 817.891 352.065C818.735 350.331 822.227 354.354 822.079 350.979C821.977 348.651 818.813 348.565 817.204 349.135C812.829 350.682 810.157 348.44 807.493 345.706L807.485 345.698ZM1050.12 388.274C1055.83 384.798 1061.3 380.766 1067.35 378.032C1071.5 376.15 1072.77 374.4 1071.75 369.931C1070.86 365.955 1070.07 364.346 1066.43 367.642C1059.89 373.572 1052.86 379.024 1048.96 387.297C1048.47 387.985 1047.3 388.766 1048.22 389.508C1048.93 390.071 1049.87 389.321 1050.12 388.282V388.274ZM930.291 305.146L930.12 305.044C931.909 306.997 935.557 307.552 934.37 311.786C934.081 312.809 936.307 315.223 938.479 315.403C940.065 315.536 940.698 314.059 941.284 312.802L939.557 306.114C938.51 302.63 936.229 301.669 932.862 302.755C931.932 303.052 931.221 302.466 931.377 301.583C932.424 295.904 927.565 294.029 924.377 291.592C922.369 290.053 918.354 289.467 916.385 291.795C914.721 293.764 917.354 295.998 918.58 297.927C919.987 300.146 922.284 297.537 924.182 299.068C921.58 300.849 921.901 302.146 924.401 303.919C926.393 305.333 928.362 304.669 930.291 305.138V305.146ZM1239.92 343.706C1243.52 344.347 1247.91 344.245 1247.37 349.698C1247.22 351.182 1243.3 351.792 1245.33 354.127C1246.73 355.744 1248.76 354.932 1250.55 353.581C1251.66 352.752 1252.51 354.385 1253.34 355.12C1254.51 356.166 1255.88 355.893 1256.24 354.729C1257.04 352.151 1258.44 350.776 1260.91 349.495C1262.76 348.534 1263.08 345.292 1262.13 343.198C1261.55 341.909 1259.48 341.3 1258.08 340.386C1255.51 346.143 1250.62 342.112 1246.9 342.948C1245.48 343.261 1243.64 342.94 1242.92 341.136C1242.34 339.667 1243.41 336.91 1240.81 337.081C1238.4 337.246 1236.96 339.831 1235.87 341.675C1235.08 343.011 1235.84 345.362 1236.15 347.221C1236.3 348.159 1237.3 348.229 1238.02 347.815C1239.28 347.089 1239.25 345.948 1238.69 344.761C1239.1 344.409 1239.51 344.058 1239.91 343.706H1239.92ZM985.659 328.504C984.433 325.488 983.581 321.848 977.816 324.262C981.105 326.035 982.261 329.332 985.808 328.293C986.855 329.832 985.808 334.503 990.16 331.121C990.769 330.652 991.488 331.347 991.683 332.293C993.792 342.433 1001.08 349.245 1007.39 356.69C1009.9 359.658 1011.58 359.315 1012.46 355.557C1015.5 342.675 1014.11 330.105 1009.73 317.739C1009.39 316.762 1009.97 315.028 1008.07 315.637C1003.75 317.028 1002.59 313.45 1000.86 310.763C998.964 312.489 999.628 315.622 996.785 315.95C993.05 316.372 993.933 318.434 995.269 320.457C996.589 322.457 998.597 324.637 995.246 326.184C991.574 327.879 991.769 324.402 991.089 322.348C990.699 321.16 990.206 319.848 988.753 320.356C987.222 320.895 987.824 322.348 988.308 323.356C989.706 326.301 989.128 328.098 985.667 328.496L985.659 328.504ZM923.276 164.591C924.252 166.505 923.698 170.177 925.729 169.497C927.534 168.896 928.924 165.927 929.713 163.716C930.487 161.537 928.385 160.779 926.588 160.427C925.463 160.209 923.565 160.123 924.409 158.771C925.096 157.67 924.596 154.732 927.502 155.521C928.69 155.842 929.94 155.912 930.026 154.139C930.159 151.35 925.112 147.303 922.229 147.655C921.385 147.756 920.377 147.264 919.588 146.795C919.088 146.498 918.112 145.655 919.276 145.116C923.096 143.342 920.338 142.553 918.83 141.483C916.346 139.718 914.455 140.897 913.713 143.155C911.729 149.201 907.533 148.194 903.065 146.78C904.111 150.029 904.104 150.006 900.416 150.983C898.893 151.389 899.213 152.881 899.018 153.92C898.705 155.599 899.979 155.81 901.252 155.748C903.268 155.654 905.369 154.693 907.651 156.318C904.447 162.029 898.033 167.599 907.322 172.919C910.44 169.028 910.549 169.06 914.572 175.591C912.697 176.473 909.58 175.309 908.994 178.973C911.111 179.536 913.174 180.02 915.197 180.637C918.955 181.77 920.643 178.911 922.291 176.653C924.51 173.614 920.737 173.989 919.666 172.833C918.76 171.849 918.119 170.528 919.541 169.958C921.877 169.028 921.065 166.193 923.268 164.591H923.276ZM1019.94 130.445C1023.77 126.382 1027.22 123.82 1030.79 123.304C1035.8 122.578 1034.72 119.672 1034.36 116.914C1033.72 112.032 1030.91 115.938 1029.13 115.899C1028.11 115.875 1026.85 116.164 1026.6 115.164C1026.26 113.828 1027.39 113 1028.69 113.024C1030.5 113.063 1033.23 113.196 1032.93 111.172C1032.39 107.602 1034.88 107.719 1036.68 106.454C1043.09 101.946 1038.3 97.2668 1036.76 92.564C1036.51 91.7984 1037.25 90.3844 1035.79 90.7203C1032.07 91.5875 1030.75 88.1267 1028.29 86.7987C1026.29 85.7206 1024.69 82.838 1022.26 83.9785C1019.76 85.1581 1020.31 88.072 1021.09 90.3219C1021.6 91.7828 1020.37 92.4859 1020.32 93.5717C1020.12 97.4699 1017.38 103.345 1019.73 104.852C1026.22 109.024 1023.03 111.61 1019.89 115.149C1019.25 115.867 1019.23 117.453 1019.43 118.547C1020.05 121.953 1020.65 125.359 1019.96 130.437L1019.94 130.445ZM927.549 313.708C922.323 311.747 918.94 306.177 912.572 306.599C910.83 306.716 909.424 305.185 910.002 303.466C911.979 297.576 906.854 294.521 904.979 290.193C904.486 289.061 903.065 288.944 901.822 289.272C899.854 289.779 900.76 291.482 900.369 292.662C899.924 294.021 902.979 295.576 900.307 296.56C898.244 297.326 896.353 296.56 895.689 294.201C895.26 292.67 894.525 291.522 892.877 292.014C892.119 292.24 891.377 293.287 891.072 294.123C890.549 295.529 891.15 296.74 892.299 297.779C893.416 298.795 896.103 298.49 895.814 300.365C895.244 304.036 898.369 306.536 898.096 310.224C897.791 314.301 900.041 315.606 903.565 312.661C905.088 311.388 906.455 311.794 907.697 313.13C908.916 314.45 909.744 315.231 910.83 312.755C911.401 311.45 913.33 311.966 914.494 312.856C918.502 315.903 922.901 315.106 927.557 313.708H927.549ZM995.261 115.352C996.714 113.563 996.777 111.899 998.871 111.352C1006.14 109.454 1010.94 100.345 1008.32 93.3999C1007.39 90.9625 1006.71 89.5641 1009 87.7205C1010.04 86.8846 1010.15 84.9082 1009.21 83.9238C1007.71 82.3614 1006.87 84.0801 1006.21 85.1659C1005.57 86.2128 1004 85.7987 1003.77 86.3221C1003.01 88.0877 1000.37 90.15 1003.1 91.8999C1004.77 92.9624 1006.57 93.9233 1005.36 95.6419C1004.07 97.4778 1001.77 97.0247 1000.35 95.1498C998.496 92.6812 997.761 93.6264 995.628 95.3841C991.917 98.4543 989.745 103.72 983.62 103.985C981.933 104.056 980.237 108.696 982.753 109.602C986.98 111.133 992.667 108.547 995.261 115.36V115.352ZM1162.81 173.575C1163.66 172.356 1164.16 171.536 1164.76 170.794C1167.14 167.857 1169.26 167.513 1169.17 169.864C1169.03 173.309 1166.58 174.958 1163.43 175.684C1163.23 175.731 1163.01 175.716 1162.85 175.801C1159.73 177.536 1158.22 182.762 1159.16 183.356C1162.97 185.738 1162.01 188.582 1161.01 192.285C1165.26 190.301 1169.53 189.355 1168.63 183.864C1168.43 182.645 1168.97 182.754 1169.76 182.528C1174.39 181.2 1175.87 176.122 1175.69 173.302C1175.42 169.114 1177.68 166.794 1179.69 165.13C1183.1 162.31 1179.22 160.068 1180.15 157.74C1177.72 159.607 1175.54 155.56 1173.13 157.443C1168.05 161.396 1161.89 164.615 1162.81 173.591V173.575ZM1185.16 179.184C1179.71 179.184 1171.16 190.269 1172.71 194.785C1173.27 196.433 1170.12 199.433 1174.17 199.722C1175.8 199.839 1177.18 198.745 1177.67 197.082C1177.97 196.05 1177.47 194.48 1179.39 194.863C1181.17 195.222 1181.43 196.683 1181.04 198.089C1180.06 201.613 1180.76 202.23 1184.45 201.152C1187.12 200.37 1189.35 200.816 1189.03 196.746C1188.91 195.23 1188.7 191.894 1191.3 191.176C1197.08 189.574 1192.22 184.332 1194.81 181.739C1192.12 180.434 1190.01 177.528 1186.43 178.754C1185.73 178.997 1185.03 179.231 1185.18 179.176L1185.16 179.184ZM1032.26 355.784C1035.68 342.948 1040.79 330.496 1040.36 316.872C1040.29 314.856 1038.98 314.114 1037.4 313.723C1035.42 313.239 1035.01 314.786 1035.01 316.176C1035.02 319.153 1032.62 320.825 1030.77 321.535C1026.74 323.09 1026.75 325.895 1027.25 329.066C1028.61 337.933 1029.28 346.917 1032.25 355.768L1032.26 355.784ZM943.526 129.367C940.471 131.07 939.143 138.764 934.51 131.648C933.768 130.515 933.206 128.14 931.159 129.812C929.284 131.343 929.698 132.952 931.541 134.694C935.651 138.569 936.51 145.6 943.495 146.772C944.76 146.983 945.667 148.03 945.112 149.819C944.706 151.131 945.737 152.045 947.12 151.998C948.542 151.951 949.932 151.279 950.55 150.061C951.471 148.225 949.432 148.436 948.62 147.975C946.128 146.561 947.042 144.756 947.854 142.928C948.948 140.475 950.081 141.725 951.393 142.819C953.245 144.358 953.893 142.928 953.776 141.413C953.346 136.085 949.62 138.827 947.143 138.983C945.682 139.077 944.237 140.569 942.807 139.061C941.315 137.491 943.174 136.202 943.401 134.773C943.667 133.116 945.057 131.585 943.526 129.367ZM1050.97 179.333C1048.43 179.817 1045.06 177.567 1044.66 182.817C1044.55 184.238 1041.72 187.098 1039.82 185.801C1038.42 184.848 1034.38 184.668 1036.35 179.981C1038.46 174.95 1042.12 171.661 1045.64 167.919C1040.77 166.161 1031.93 167.771 1031.9 170.958C1031.86 174.973 1030.8 176.255 1025.1 176.262C1032.7 179.739 1035.82 184.41 1037.78 190.621C1041.95 186.504 1050.34 188.418 1050.97 179.333ZM1147.47 146.811C1146.72 147.194 1145.58 147.42 1145.03 148.116C1143.71 149.803 1144.69 151.412 1145.62 152.967C1146.27 154.045 1147.81 155.201 1146.15 156.459C1145.48 156.974 1144.38 158.467 1143.33 156.881C1142.72 155.959 1142.21 155.1 1141.3 156.248C1140.74 156.967 1140.6 158.123 1141.33 158.99C1142.37 160.24 1144.69 160.888 1143.44 163.208C1140.49 168.63 1144.87 169.38 1148.22 170.739C1149.1 171.099 1150.5 171.466 1150.45 170.036C1150.41 168.755 1152.44 167.286 1150.95 166.599C1146.61 164.583 1149.97 162.513 1151.2 161.802C1155.07 159.545 1157.07 156.576 1157.19 152.092C1157.21 151.154 1158.87 150.186 1157.33 149.201C1156.37 148.592 1155.36 149.233 1154.73 149.967C1152.17 152.982 1149.9 155.271 1149.5 148.78C1149.44 147.748 1148.73 147.022 1147.48 146.803L1147.47 146.811ZM903.9 314.966C904.705 318.348 907.557 318.083 907.533 320.762C907.502 323.598 910.182 324.645 912.666 324.215C916.002 323.637 917.276 325.121 917.901 328.019C918.221 329.512 918.737 331.715 920.721 330.894C924.838 329.207 926.549 324.957 927.471 321.278C928.377 317.653 921.901 316.044 921.682 316.247C915.807 321.824 910.252 317.27 903.9 314.966ZM987.355 352.143C988.324 354.51 984.511 356.026 986.73 358.674C993.222 366.416 999.3 374.478 1004.42 383.235C1003.33 371.244 997.949 361.299 987.355 352.143ZM1172.12 283.983C1173.52 281.827 1177.88 282.835 1177.04 279.335C1176.22 275.913 1177.99 273.788 1179.22 271.288C1180.06 269.57 1183.43 267.867 1180.64 266.171C1178.55 264.898 1178.04 268.921 1176.24 269.937C1175.99 270.077 1175.9 270.624 1175.85 270.999C1175.35 275.069 1171.77 274.741 1169.26 274.983C1167.26 275.179 1163.76 275.28 1164.88 270.999C1165.15 269.96 1164.02 269.281 1162.9 269.616C1161.25 270.116 1160.99 271.351 1161.5 272.866C1162.79 276.749 1163.3 281.155 1168.06 282.71C1168.97 281.6 1167.09 278.944 1169.58 279.014C1172.1 279.085 1170.87 282.085 1172.12 283.975L1172.12 283.983ZM1055.8 136.811C1056.54 141.077 1054.5 143.272 1050.92 142.085C1049.6 141.647 1048.28 141.397 1048 142.561C1047.57 144.428 1048.91 146.459 1047.94 148.428C1048.89 148.397 1050 148.686 1050.76 148.295C1056.62 145.303 1062.4 142.155 1068.25 139.132C1069.37 138.546 1070.48 137.936 1070.16 136.561C1069.48 133.694 1070.2 132.187 1073.36 131.632C1075.07 131.327 1074.94 129.624 1073.92 128.328C1072.82 126.945 1072.04 127.585 1071.22 128.742C1070 130.499 1068.5 132.093 1067.41 133.929C1064.53 138.749 1060.76 139.936 1055.79 136.811H1055.8ZM1152.69 262.023C1158.01 260.734 1158.12 255.961 1159.49 252.274C1162.09 253.227 1164.24 256.773 1166.25 253.391C1168.74 249.196 1161.93 249.204 1161.95 245.665C1161.95 244.516 1160.57 244.368 1159.62 244.696C1157.08 245.579 1154.14 246.087 1152.25 247.751C1151.22 248.657 1153.53 251.078 1153.95 253.055C1154.65 256.281 1155.36 259.156 1152.69 262.015L1152.69 262.023ZM1267.37 310.302C1265.22 308.802 1262.2 311.958 1260.62 308.122C1259.97 306.521 1258.53 307.849 1258.3 309.005C1257.71 311.942 1255.8 312.278 1253.22 312.598C1250.46 312.942 1248.41 315.145 1246.43 317.059C1245.64 317.825 1245.82 318.801 1246.43 319.739C1247.06 320.7 1247.69 320.286 1248.39 319.903C1251.14 318.403 1254.4 318.622 1257.05 316.09C1259.45 313.802 1263.37 311.349 1266.44 316.13C1266.91 316.856 1267.56 317.348 1268.34 316.669C1269.42 315.731 1268.8 314.778 1267.87 314.419C1264.87 313.255 1267.34 311.434 1267.37 310.302H1267.37ZM962.104 361.619C962.917 363.33 964.433 364.385 966.12 364.721C968.597 365.205 972.198 366.369 973.511 365.197C978.027 361.182 976.8 357.83 970.683 355.557C970.136 355.354 969.417 355.338 969.05 354.971C966.901 352.792 964.347 354.432 963.589 355.627C962.206 357.822 965.854 357.463 966.378 359.08C965.073 360.049 962.917 359.682 962.104 361.619ZM974.784 368.587C981.925 372.384 987.456 377.478 992.66 383.11C991.878 377.47 989.113 372.751 986.394 368.119C984.714 365.252 982.144 362.041 979.183 367.353C978.191 369.134 976.628 366.916 974.776 368.587H974.784ZM1140.33 143.6C1141.47 146.764 1143.6 145.756 1146.04 145.334C1150.96 144.491 1151.86 140.928 1152.79 136.632C1148.78 137.413 1145.22 136.952 1142.02 134.616C1140.83 133.741 1139.08 132.202 1137.86 133.609C1135.79 135.976 1139.81 136.647 1139.9 138.835C1139.99 141.132 1141.44 140.522 1142.54 139.186C1143.61 137.882 1144.83 138.397 1145.43 139.413C1146.21 140.764 1144.74 141.342 1143.93 142.139C1142.91 143.131 1141.14 142.038 1140.33 143.592V143.6ZM1040.32 410.054C1033.43 424.577 1031.33 439.63 1034.81 449.966C1034.54 436.326 1037.02 423.092 1040.32 410.054ZM1041.36 456.965C1041.11 444.81 1041.14 432.756 1044.11 420.881C1036.55 432.428 1039.35 444.771 1041.36 456.965ZM1069.43 12.006C1078.4 10.6233 1078.67 10.9045 1078.3 19.5681C1078.25 20.6461 1077.89 22.6382 1079.05 22.5835C1081.23 22.4742 1083.8 22.9116 1085.54 20.8727C1087.11 19.0291 1086.97 17.4979 1084.89 15.9823C1083.47 14.959 1082.17 13.6309 1081.19 12.1857C1077.42 6.60006 1074.56 6.3657 1069.43 12.006ZM782.563 327.504C785.977 325.277 789.321 323.285 792.414 320.957C793.274 320.309 796.016 319.332 793.727 317.59C792.469 316.637 791.368 313.536 788.649 316.317C786.297 318.723 783.532 320.793 780.688 322.598C778.828 323.777 780.399 324.449 780.633 325.301C780.93 326.371 781.133 327.691 782.571 327.504H782.563ZM1008.78 131.429C1010.79 125.539 1008.86 121.023 1006.89 116.391C1006.38 115.195 1007.57 112.485 1005.53 112.743C1003.03 113.063 999.597 112.93 998.324 115.86C997.417 117.945 998.097 120.883 1000.99 120.125C1005.92 118.836 1006.03 122.101 1006.93 125.062C1007.49 126.898 1006.46 129.046 1008.78 131.421V131.429ZM1004.5 143.897C1007.86 144.225 1010.7 143.585 1008.17 138.858C1007.28 137.202 1008.75 137.085 1009.21 136.218C1011.1 132.718 1006.24 132.843 1005.82 130.327C1005.62 129.07 1004.32 129.601 1003.59 130.382C1001.95 132.14 1002.01 133.476 1004.03 135.21C1006.19 137.069 1003.76 138.069 1002.64 139.288C1001.54 140.475 998.574 140.35 999.316 142.592C999.925 144.444 1002.25 144.124 1004.49 143.889L1004.5 143.897ZM1110.1 267.515C1109.15 269.468 1111.74 272.21 1108.05 271.999C1107.29 271.952 1106.73 269.117 1105.83 271.757C1105.48 272.749 1105.15 273.96 1106.72 274.702C1107.72 275.171 1108.9 276.093 1109.18 277.054C1110.25 280.632 1112.02 280.163 1114.15 278.186C1116.16 276.311 1118.73 274.468 1114.99 271.734C1113.43 270.601 1112.06 269.226 1110.09 267.515H1110.1ZM998.089 155.123C1002.37 154.529 1005.12 154.35 1007.76 153.717C1010.96 152.951 1010.03 150.631 1009.25 148.553C1008.47 146.483 1007.01 144.499 1005.05 146.709C1002.91 149.115 1000.47 146.616 997.8 148.373C1001.53 149.819 1000.54 152.045 998.081 155.115L998.089 155.123ZM972.394 233.173C972.956 231.462 973.566 229.869 973.987 228.236C974.308 226.978 974.019 225.58 972.37 226.166C968.683 227.478 965.55 226.814 962.479 224.502C961.315 223.627 959.62 223.799 958.94 225.275C958.026 227.252 960.104 227.431 961.159 227.955C964.815 229.759 968.558 231.408 972.401 233.181L972.394 233.173ZM1079.11 138.788C1075.08 138.054 1073.93 141.405 1072.98 143.858C1072.32 145.584 1074.76 147.037 1076.48 146.709C1079.49 146.147 1083.38 145.678 1083.93 142.038C1084.28 139.702 1081.25 139.093 1079.11 138.78V138.788ZM1049.16 177.192C1051.95 178.348 1054.7 179.606 1057.54 180.606C1058.87 181.075 1060.22 180.747 1061.07 179.309C1061.89 177.95 1061.13 176.473 1060.28 176.34C1053.41 175.239 1058.33 172.059 1059.11 169.771C1059.47 168.716 1060.73 167.716 1059.18 166.88C1057.62 166.036 1057.66 167.7 1056.94 168.474C1054.48 171.153 1055.78 177.598 1049.15 177.184L1049.16 177.192ZM803.946 159.232C803.915 159.716 803.985 160.326 803.829 160.873C802.883 164.193 805.922 167.396 807.212 167.146C810.337 166.521 809.477 163.365 808.579 160.888C808.391 160.373 808.157 159.56 808.407 159.248C810.758 156.318 808.555 154.209 806.446 154.092C803.594 153.928 802.938 156.49 803.946 159.232ZM1043.87 464.488C1043.82 471.199 1044.94 477.691 1047.69 483.854C1048.11 484.8 1049.05 485.378 1050.09 484.714C1051.24 483.979 1050.57 483.112 1050.07 482.245C1046.89 476.699 1046.45 470.308 1043.87 464.488ZM1047.45 362.713C1051.82 358.197 1053.12 353.557 1055.72 349.737C1056.39 348.745 1058.07 347.495 1056.35 346.284C1054.69 345.12 1053.26 346.456 1052.49 347.792C1050.08 351.995 1049.39 356.776 1047.45 362.713ZM1077.3 17.6698C1073.12 16.5292 1071.27 17.9744 1071.51 21.9351C1071.65 24.1772 1071.85 26.4193 1072.1 28.6613C1072.18 29.4425 1072.52 30.169 1073.54 30.1066C1074.5 30.0519 1075 29.3878 1074.87 28.5754C1074.27 24.6459 1075.68 21.1305 1077.3 17.6698ZM1092.69 23.4507C1098.09 20.9039 1102.07 29.6456 1107.92 25.7474C1106.2 24.2553 1104.04 26.802 1102.68 23.9506C1100.07 18.5213 1096.3 19.9743 1092.69 23.4507ZM840.462 393.625C840.642 392.774 841.728 391.649 840.423 391.117C837.579 389.961 833.704 393.063 831.493 389.016C831.079 389.399 830.587 389.727 830.251 390.172C829.423 391.289 830.399 391.789 831.024 392.516C832.712 394.461 835.407 393.891 837.29 395.156C838.064 395.672 837.673 397.781 839.415 397.195C841.228 396.594 840.048 394.805 840.462 393.617V393.625ZM1070.07 125.562C1072.03 124.898 1073.13 124.617 1074.15 124.164C1075.79 123.437 1075.72 126.25 1077.5 125.593C1079.99 124.687 1079.52 118.516 1076.82 118.516C1073.32 118.516 1071.64 121.414 1070.07 125.562ZM829.649 122.789C832.993 122.39 834.493 119.922 834.36 117.117C834.235 114.586 831.493 112.524 829.353 113.227C824.86 114.703 831.399 119.422 827.532 121.828C827.063 122.117 828.821 122.515 829.657 122.789H829.649ZM889.252 317.692C885.947 312.145 882.041 315.708 878.595 316.34C876.095 316.801 878.908 319.254 876.439 320.637C881.463 319.793 884.939 317.708 889.252 317.692ZM1266.19 205.487C1263.59 205.315 1261.01 206.573 1260.98 208.409C1260.96 210.3 1262.55 213.073 1265.59 212.659C1268.01 212.331 1269.18 210.698 1269.26 208.159C1269.34 205.667 1268.08 205.159 1266.2 205.487H1266.19ZM1093.88 241.032C1094.42 242.595 1095.12 244.188 1097.46 242.915C1098.71 242.235 1101.99 244.946 1101.14 240.876C1100.75 239.04 1101.15 235.806 1098.29 236.204C1096.43 236.462 1094.04 238.025 1093.88 241.032ZM939.776 346.479C943.01 349.331 945.448 351.096 949.315 351.62C948.471 349.151 951.167 346.495 948.87 344.894C946.128 342.98 943.745 346.659 939.776 346.479ZM842.704 363.103C843.892 361.502 847.275 362.892 847.322 359.611C847.345 357.494 846.79 355.315 844.392 355.245C842.126 355.174 841.165 357.291 840.767 359.299C840.454 360.861 840.595 362.416 842.712 363.103H842.704ZM1125.63 273.632C1124.29 274.272 1123.16 274.976 1121.93 275.358C1120.36 275.851 1117.74 275.71 1119.26 278.272C1120.15 279.772 1117.97 282.053 1120.55 282.624C1123.4 283.249 1123.22 280.374 1124.22 278.968C1125.19 277.6 1126.29 276.116 1125.64 273.632H1125.63ZM976.394 234.579C978.628 236.736 980.066 240.454 984.214 237.79C985.792 236.775 986.855 235.736 985.573 234.181C982.652 230.658 979.573 234.118 976.394 234.572V234.579ZM979.292 91.2359C977.409 91.9234 976.581 92.5874 977.128 94.0248C977.839 95.9154 979.003 97.7277 980.8 98.4855C982.784 99.3214 985.027 102.837 986.667 100.642C989.152 97.3293 983.558 99.7589 983.222 97.1887C982.909 94.806 979.12 94.4545 979.3 91.2281L979.292 91.2359ZM1085.97 114.672C1083.79 118.148 1083.75 121.937 1083.19 125.773C1090.97 123.617 1087.51 119.008 1085.97 114.672ZM831.259 107.758C832.571 106.313 833.501 105.204 834.524 104.188C835.642 103.079 837.259 102.102 835.134 100.509C833.845 99.5401 832.649 98.7433 831.017 100.228C828.126 102.86 830.063 105.009 831.259 107.758ZM1169.29 199.558C1167.58 201.98 1169.18 204.401 1167.6 206.276C1166.58 207.472 1166.81 208.909 1168 209.909C1168.8 210.589 1169.92 210.495 1170.64 209.69C1171.63 208.581 1173.54 207.034 1172.41 205.878C1170.71 204.128 1171.44 201.441 1169.29 199.558ZM1056.4 132.429C1060.31 131.124 1063.11 129.921 1064.1 127.023C1064.59 125.586 1062.59 125.07 1061.15 125.086C1056.6 125.14 1058.2 129.132 1056.4 132.429ZM778.821 304.669C779.086 306.091 779 308.614 780.75 308.169C783.117 307.56 783.055 304.396 783.078 302.466C783.094 301.162 784.172 297.912 782.063 298.037C778.219 298.263 780.086 302.427 778.813 304.669H778.821ZM1083.86 128.499C1082.09 131.327 1079.68 133.405 1081.86 136.616C1082.74 137.897 1084.08 137.725 1084.9 136.796C1087.43 133.913 1085.39 131.499 1083.86 128.499ZM791.914 273.233C789.758 274.366 787.618 275.89 788.461 278.132C789.414 280.678 792.493 280.46 795.704 281.46C794.211 278.225 793.094 275.796 791.914 273.226V273.233ZM1229.52 320.184C1232.6 321.129 1233.53 324.684 1236.57 325.762C1236.67 320.856 1234.32 318.997 1229.52 320.184ZM1267.18 293.576C1264.11 295.42 1264.12 297.709 1263.59 299.701C1263.2 301.169 1263.75 302.599 1265.33 302.771C1267.2 302.974 1267.29 301.497 1267.2 300.013C1267.1 298.162 1267.18 296.295 1267.18 293.584V293.576ZM982.769 266.359C987.097 264.703 989.98 263.718 992.761 262.5C994.292 261.828 994.675 260.555 993.433 259.18C992.972 258.664 991.8 257.703 991.722 258.43C991.206 263.312 985.761 261.64 982.769 266.367V266.359ZM946.026 369.541C943.284 368.15 940.69 366.947 937.307 366.806C939.51 370.72 941.948 372.415 946.026 369.541ZM1005.86 303.419C1003.45 306.849 1005.61 309.364 1006.19 312.036C1006.48 313.372 1007.29 313.458 1008.29 313.239C1009.48 312.981 1009.97 312.059 1009.32 311.106C1007.8 308.88 1008.42 305.747 1005.86 303.419H1005.86ZM1148.99 273.288C1149.61 271.015 1153.51 271.648 1153.44 268.531C1153.42 267.617 1152.93 265.554 1151.66 266.07C1149.45 266.968 1147.67 268.788 1147.07 271.288C1146.83 272.304 1147.4 273.14 1148.99 273.288ZM1031.86 134.218C1030.27 132.937 1031.26 128.726 1027.67 130.148C1026.23 130.718 1024.63 132.796 1025.47 134.343C1027.05 137.249 1029.51 134.624 1031.86 134.218ZM1178.1 255.789C1176.41 252.102 1175.65 249.047 1172.77 247.36C1172.51 247.204 1170.99 248.36 1171.05 248.547C1172.12 251.578 1173.69 254.274 1178.1 255.789ZM944.299 275.741C943.62 278.663 941.792 280.905 944.534 283.147C945.706 284.1 946.807 283.819 947.362 282.545C948.581 279.757 947.55 277.671 944.292 275.733L944.299 275.741ZM769.766 308.247C771.828 310.239 772.125 313.645 775.766 312.942C776.899 312.723 777.906 311.388 777.188 310.2C775.625 307.622 773.352 306.591 769.766 308.247ZM975.839 222.572C974.347 217.393 970.581 218.83 967.44 218.073C967.269 218.627 967.104 219.19 966.933 219.744C969.901 220.69 972.87 221.627 975.831 222.572H975.839ZM914.893 80.8459C916.791 80.2444 918.221 78.9163 918.877 77.0492C919.252 75.979 918.143 75.1978 917.166 75.3618C914.971 75.729 913.104 76.8539 912.744 79.2132C912.635 79.9319 913.682 80.8381 914.893 80.8381V80.8459ZM997.066 92.0328C997.417 88.0095 999.519 85.705 996.894 83.4785C996.589 83.2207 995.449 83.3301 995.355 83.541C994.363 85.955 994.581 88.2517 997.066 92.0328ZM917.83 279.655C922.315 278.132 922.463 275.155 923.002 272.491C923.049 272.273 922.205 271.577 921.83 271.616C918.213 271.976 920.737 275.601 919.018 277.054C918.658 277.358 918.573 277.991 917.823 279.655H917.83ZM1163.12 213.159C1164.95 210.276 1164.61 207.55 1164.4 204.503C1162.03 206.904 1161.6 209.789 1163.12 213.159ZM945.354 359.088C944.604 357.526 943.354 356.369 941.573 356.057C939.862 355.752 940.612 356.729 940.432 357.807C940.018 360.26 940.815 361.049 942.932 361.119C944.182 361.158 945.182 360.65 945.354 359.088ZM1238.48 360.588C1238.85 358.822 1237.74 358.51 1236.53 358.268C1233.95 357.744 1233.62 359.565 1233.41 361.361C1233.23 362.76 1233.29 364.416 1235.24 364.197C1237.21 363.971 1237.76 362.033 1238.49 360.588H1238.48ZM1043.77 144.186C1041.23 143.756 1039.87 144.475 1039.35 146.116C1038.88 147.6 1038.91 149.28 1040.24 150.412C1040.71 150.811 1041.85 151.045 1042.3 150.756C1044.48 149.381 1041.54 148.647 1041.79 147.686C1042.11 146.498 1043 145.475 1043.76 144.186H1043.77ZM1228.03 112.274C1228.12 110.774 1226.96 110.227 1226.2 110.633C1224.87 111.352 1222.76 109.711 1222.19 111.766C1221.75 113.344 1223.37 114.36 1224.53 114.617C1226.23 115 1227.1 113.328 1228.03 112.274ZM1152.06 66.5967C1149.64 60.7611 1148.88 60.597 1144.85 64.2531C1147.02 64.9562 1149.13 65.6436 1152.06 66.5967ZM978.737 314.559C975.706 314.403 976.042 318.762 972.73 317.567C971.823 317.239 972.901 320.903 974.816 320.434C977.55 319.762 978.855 317.809 978.737 314.559ZM1247.31 307.138C1245.62 307.653 1243.98 308.278 1244.13 310.591C1244.22 311.872 1244.86 313.247 1246.06 313.13C1248.23 312.927 1248.99 310.677 1249.76 309.091C1250.26 308.091 1248.59 307.372 1247.3 307.138H1247.31ZM792.204 271.687C792.571 269.913 792.594 269.312 792.813 268.804C793.649 266.874 795.11 265.039 793.594 262.836C793.446 262.625 792.758 262.523 792.524 262.679C790.36 264.117 791.336 266.624 790.672 268.585C790.508 269.077 791.274 269.882 792.204 271.687ZM1161.9 266.453C1164.04 264.429 1165.72 262.578 1165.81 259.773C1165.82 259.531 1164.67 258.937 1164.52 259.055C1162.68 260.586 1161.72 262.64 1161.27 264.961C1161.24 265.109 1161.4 265.296 1161.91 266.453H1161.9ZM1104.99 121.32C1103.29 122.023 1102.45 123.539 1102.01 125.203C1101.83 125.914 1102.5 126.796 1103.4 126.632C1105.2 126.32 1106.75 125.531 1106.76 123.359C1106.77 122.281 1106.12 121.601 1104.98 121.312L1104.99 121.32ZM863.462 400.929C863.142 400.75 862.705 400.304 862.283 400.312C861.306 400.344 861.322 401.304 861.251 401.953C861.22 402.289 861.369 403.125 862.251 402.734C862.97 402.414 863.541 402.047 863.455 400.929H863.462Z" fill="#104753"/>
<defs>
<clipPath id="clip0_51_2">
<rect width="1574.9" height="423.424" fill="white" transform="translate(-53.8579 491.932) rotate(-4.58638)"/>
</clipPath>
<clipPath id="clip1_51_2">
<rect width="146" height="151" fill="white" transform="translate(690 349)"/>
</clipPath>
</defs>
</svg>
